<?xml version="1.0" encoding="UTF-8"?>
<svg xmlns="http://www.w3.org/2000/svg" xmlns:xlink="http://www.w3.org/1999/xlink" id="Layer_1" data-name="Layer 1" viewBox="0 0 385.18 46.85">
  <defs>
    <style>
      .cls-1 {
        fill: url(#linear-gradient);
      }

      .cls-1, .cls-2 {
        stroke-width: 0px;
      }

      .cls-2 {
        fill: #fff;
      }
    </style>
    <linearGradient id="linear-gradient" x1="192.59" y1="9.34" x2="192.59" y2="36.02" gradientUnits="userSpaceOnUse">
      <stop offset="0" stop-color="#e3218f"></stop>
      <stop offset="1" stop-color="#357fc2"></stop>
    </linearGradient>
  </defs>
  <path class="cls-1" d="M371.54,45.85v-5.42h-5.37v-5.37h-5.37v-5.37h-5.37v-12.58h16.11v-3.48h-19.59v32.22h-12.63V1h39.48v5.42h5.37v17.95h-5.42v8.9h5.42v12.58h-12.63ZM323.21,45.85v-5.42h-16.11v-12.58h16.11v-3.53h-5.37v-5.32h-8.9v5.37h-5.37v21.48h-12.58v-28.74h5.42v-5.37h5.37v-5.37h5.32V1.05h12.63v5.37h5.37v5.37h5.37v5.37h5.37v28.69h-12.63ZM242.66,45.85v-28.74h12.63v16.11h19.59v-3.48h-16.11v-12.63h16.11v-3.48h-32.22V1h39.48v5.42h5.37v34.06h-5.42v5.37h-39.43ZM199.7,45.85v-5.42h-5.37V6.37h5.37V1.05h39.43v12.58h-32.17v19.59h32.17v12.63h-39.43ZM151.37,45.85v-5.42h-5.37V6.37h5.37V1.05h34.11v5.37h5.37v12.58h-12.63v-5.37h-19.59v19.59h19.59v-5.37h12.63v12.63h-5.42v5.37h-34.06ZM129.88,45.85v-5.42h-16.11v-12.58h16.11v-3.53h-5.37v-5.32h-8.9v5.37h-5.37v21.48h-12.58v-28.74h5.42v-5.37h5.37v-5.37h5.32V1.05h12.63v5.37h5.37v5.37h5.37v5.37h5.37v28.69h-12.63ZM49.33,45.85V1h39.48v5.42h5.37v17.95h-5.42v5.37h-23.32v-12.63h16.11v-3.48h-19.59v32.22h-12.63ZM1,45.85v-12.63h32.22v-3.48H6.37v-5.42H1V6.37h5.37V1.05h39.43v12.58H13.63v3.53h26.85v5.37h5.37v17.95h-5.42v5.37H1ZM210.44,29.74v-12.63h23.37v12.63h-23.37Z"></path>
  <path class="cls-2" d="M377.8,2v5.42h5.37v15.95h-5.42v10.9h5.42v10.58h-10.63v-5.42h-5.37v-5.37h-5.37v-5.37h-5.37v-10.58h16.11v-5.48h-21.59v32.22h-10.63V2h37.48M281.14,2v5.42h5.37v32.06h-5.42v5.37h-37.43v-26.74h10.63v16.11h21.59v-5.48h-16.11v-10.63h16.11v-5.48h-32.22V2h37.48M87.82,2v5.42h5.37v15.95h-5.42v5.37h-21.32v-10.63h16.11v-5.48h-21.59v32.22h-10.63V2h37.48M318.73,2.05v5.37h5.37v5.37h5.37v5.37h5.37v26.69h-10.63v-5.42h-16.11v-10.58h16.11v-5.53h-5.37v-5.32h-10.9v5.37h-5.37v21.48h-10.58v-26.74h5.42v-5.37h5.37v-5.37h5.32V2.05h10.63M238.13,2.05v10.58h-32.17v21.59h32.17v10.63h-37.43v-5.42h-5.37V7.37h5.37V2.05h37.43M184.48,2.05v5.37h5.37v10.58h-10.63v-5.37h-21.59v21.59h21.59v-5.37h10.63v10.63h-5.42v5.37h-32.06v-5.42h-5.37V7.37h5.37V2.05h32.11M125.41,2.05v5.37h5.37v5.37h5.37v5.37h5.37v26.69h-10.63v-5.42h-16.11v-10.58h16.11v-5.53h-5.37v-5.32h-10.9v5.37h-5.37v21.48h-10.58v-26.74h5.42v-5.37h5.37v-5.37h5.32V2.05h10.63M44.8,2.05v10.58H12.63v5.53h26.85v5.37h5.37v15.95h-5.42v5.37H2v-10.63h32.22v-5.48H7.37v-5.42H2V7.37h5.37V2.05h37.43M232.81,18.11v10.63h-21.37v-10.63h21.37M379.8,0h-41.48v46.85h14.63V14.63h17.59v1.48h-16.11v14.58h5.37v5.37h5.37v5.37h5.37v5.42h14.63v-14.58h-5.42v-6.9h5.42V5.42h-5.37V0h0ZM283.14,0h-41.48v14.63h32.22v1.48h-16.11v14.63h16.11v1.48h-17.59v-16.11h-14.63v30.74h41.43v-5.37h5.42V5.42h-5.37V0h0ZM89.82,0h-41.48v46.85h14.63V14.63h17.59v1.48h-16.11v14.63h25.32v-5.37h5.42V5.42h-5.37V0h0ZM320.73.05h-14.63v5.32h-5.32v5.37h-5.37v5.37h-5.42v30.74h14.58v-21.48h5.37v-5.37h6.9v5.32h5.37v1.53h-16.11v14.58h16.11v5.42h14.63v-30.69h-5.37v-5.37h-5.37v-5.37h-5.37V.05h0ZM240.13.05h-41.43v5.32h-5.37v36.06h5.37v5.42h41.43v-14.63h-32.17V14.63h32.17V.05h0ZM186.48.05h-36.11v5.32h-5.37v36.06h5.37v5.42h36.06v-5.37h5.42v-14.63h-14.63v5.37h-17.59V14.63h17.59v5.37h14.63V5.42h-5.37V.05h0ZM127.41.05h-14.63v5.32h-5.32v5.37h-5.37v5.37h-5.42v30.74h14.58v-21.48h5.37v-5.37h6.9v5.32h5.37v1.53h-16.11v14.58h16.11v5.42h14.63v-30.69h-5.37v-5.37h-5.37v-5.37h-5.37V.05h0ZM46.8.05H5.37v5.32H0v19.95h5.37v5.42h26.85v1.48H0v14.63h41.43v-5.37h5.42v-19.95h-5.37v-5.37H14.63v-1.53h32.17V.05h0ZM234.81,16.11h-25.37v14.63h25.37v-14.63h0Z"></path>
</svg>
